<?xml version="1.0" standalone="no"?>
<!DOCTYPE svg PUBLIC "-//W3C//DTD SVG 20010904//EN"
 "http://www.w3.org/TR/2001/REC-SVG-20010904/DTD/svg10.dtd">
<svg version="1.0" xmlns="http://www.w3.org/2000/svg"
 width="1210.000000pt" height="1280.000000pt" viewBox="0 0 1210.000000 1280.000000"
 preserveAspectRatio="xMidYMid meet">
<metadata>
Created by potrace 1.15, written by Peter Selinger 2001-2017
</metadata>
<g transform="translate(0.000000,1280.000000) scale(0.100000,-0.100000)"
fill="#000000" stroke="none">
<path d="M6413 12780 c-141 -23 -205 -44 -249 -82 -18 -16 -68 -86 -111 -154
-100 -160 -124 -189 -184 -219 -82 -42 -154 -55 -359 -65 -107 -5 -213 -14
-235 -21 -97 -28 -158 -69 -373 -251 -141 -119 -223 -150 -482 -183 -298 -37
-358 -64 -563 -254 -90 -83 -162 -132 -232 -155 -27 -10 -119 -24 -205 -31
-333 -30 -416 -66 -642 -281 -189 -180 -217 -192 -483 -205 -218 -10 -307 -28
-418 -86 -96 -50 -210 -163 -259 -258 -64 -123 -83 -203 -83 -345 0 -155 16
-217 90 -365 83 -165 78 -197 -68 -388 -78 -101 -100 -142 -117 -216 -21 -89
-16 -168 15 -241 97 -232 90 -202 90 -350 0 -128 -2 -138 -29 -197 -66 -143
-182 -207 -517 -288 -262 -62 -368 -105 -457 -181 -73 -62 -150 -202 -194
-352 -18 -61 -23 -102 -23 -197 0 -115 1 -122 31 -180 118 -225 116 -220 117
-281 1 -77 -15 -108 -113 -219 -109 -124 -135 -177 -135 -280 0 -78 2 -83 67
-220 85 -178 102 -240 102 -375 0 -96 -2 -110 -30 -170 -17 -36 -75 -123 -129
-195 -126 -166 -149 -216 -149 -315 1 -64 6 -88 38 -165 59 -141 77 -205 78
-275 1 -89 -11 -127 -87 -260 -95 -168 -108 -206 -109 -325 -1 -110 15 -163
85 -283 46 -76 208 -239 294 -295 103 -66 167 -84 348 -101 107 -11 172 -22
202 -35 46 -20 96 -78 122 -141 51 -121 86 -180 143 -238 122 -125 201 -156
438 -172 187 -13 258 -28 352 -75 112 -57 154 -108 269 -331 62 -121 132 -184
236 -213 22 -6 121 -18 220 -26 265 -22 349 -54 432 -163 79 -104 81 -222 9
-452 -25 -79 -51 -172 -57 -205 -29 -158 42 -378 160 -495 78 -78 180 -127
416 -200 304 -94 363 -128 531 -302 254 -262 301 -299 424 -329 68 -16 219
-16 291 1 191 43 302 121 513 362 85 98 135 129 221 136 135 10 246 -53 475
-273 178 -171 265 -232 393 -276 156 -53 330 -62 479 -24 131 35 187 75 298
220 119 153 194 217 306 256 50 19 93 23 284 29 202 7 233 11 305 34 205 66
316 182 334 349 11 97 -2 197 -50 399 -75 316 -76 429 -4 575 75 152 189 208
540 267 83 14 175 32 205 40 202 53 335 149 401 290 60 128 62 241 8 501 -20
98 -32 193 -36 275 -4 112 -3 131 17 182 26 71 100 154 169 192 76 41 132 43
306 11 165 -30 221 -29 300 5 141 60 336 268 437 466 70 136 92 207 92 294 0
73 -1 78 -64 200 -63 121 -65 126 -68 212 -5 117 21 206 79 272 77 88 163 117
444 152 110 14 227 32 260 40 233 60 424 258 506 524 18 59 23 99 23 190 1
135 -8 167 -73 265 -68 101 -75 122 -69 218 4 62 18 121 56 237 65 197 73 235
73 341 1 168 -41 286 -142 394 -109 115 -235 179 -478 241 -230 59 -333 107
-420 194 -83 82 -122 199 -101 295 14 63 20 73 112 193 44 57 91 126 106 155
26 49 27 60 27 192 0 131 -2 146 -31 226 -57 160 -156 278 -282 336 -39 18
-82 27 -160 34 -134 11 -220 37 -301 89 -37 24 -136 114 -235 214 -229 232
-326 293 -666 416 -169 61 -214 84 -263 139 -90 99 -91 318 -2 600 19 62 35
128 35 147 0 112 -76 302 -171 428 -63 82 -184 188 -259 226 -30 15 -116 42
-190 59 -233 54 -297 89 -437 233 -119 121 -240 211 -333 247 -41 16 -151 48
-245 71 -177 43 -273 76 -340 118 -22 14 -119 102 -215 197 -158 155 -183 176
-260 214 -78 38 -236 82 -285 80 -11 -1 -71 -10 -132 -19z"/>
</g>
</svg>
